<svg width="24" height="25" viewBox="0 0 24 25" fill="none" xmlns="http://www.w3.org/2000/svg">
<path d="M12 2.05078C17.52 2.05078 22 6.53078 22 12.0508C22 17.5708 17.52 22.0508 12 22.0508C6.48 22.0508 2 17.5708 2 12.0508C2 6.53078 6.48 2.05078 12 2.05078ZM6.02332 15.4671C7.49083 17.6577 9.69511 19.0508 12.1597 19.0508C14.6243 19.0508 16.8286 17.6577 18.2961 15.4671C16.6885 13.968 14.5312 13.0508 12.1597 13.0508C9.78821 13.0508 7.63095 13.968 6.02332 15.4671ZM12 11.0508C13.6569 11.0508 15 9.70763 15 8.05078C15 6.39393 13.6569 5.05078 12 5.05078C10.3431 5.05078 9 6.39393 9 8.05078C9 9.70763 10.3431 11.0508 12 11.0508Z" fill="#B5B5B5"/>
</svg>
