<svg width="99" height="70" viewBox="0 0 99 70" fill="none" xmlns="http://www.w3.org/2000/svg">
<rect opacity="0.3" x="-1" width="100" height="70" fill="#E9BEB3" fill-opacity="0.2"/>
<path d="M49.3142 19.6667V13H58.2031V19.6667H49.3142ZM38.2031 24.1111V13H47.092V24.1111H38.2031ZM49.3142 33V21.8889H58.2031V33H49.3142ZM38.2031 33V26.3333H47.092V33H38.2031Z" fill="#E8E8E8"/>
<path d="M15.6916 53.166H19.2316C21.9316 53.166 23.7676 51.462 23.7676 48.966C23.7676 46.47 21.9316 44.766 19.2316 44.766H15.6916V53.166ZM16.8916 52.122V45.81H19.1596C21.2356 45.81 22.5676 47.082 22.5676 48.966C22.5676 50.85 21.2356 52.122 19.1596 52.122H16.8916ZM27.7537 46.746C26.7337 46.746 25.7857 47.034 25.1257 47.562L25.6057 48.426C26.0977 48.006 26.8657 47.742 27.6217 47.742C28.7617 47.742 29.3257 48.306 29.3257 49.278V49.506H27.5017C25.6057 49.506 24.9457 50.346 24.9457 51.366C24.9457 52.47 25.8577 53.238 27.2977 53.238C28.2937 53.238 29.0017 52.902 29.3857 52.326V53.166H30.4777V49.326C30.4777 47.586 29.4937 46.746 27.7537 46.746ZM27.4897 52.35C26.6137 52.35 26.0857 51.954 26.0857 51.318C26.0857 50.778 26.4097 50.334 27.5497 50.334H29.3257V51.222C29.0377 51.954 28.3537 52.35 27.4897 52.35ZM34.4336 53.238C36.1256 53.238 37.1816 52.506 37.1816 51.354C37.1816 48.882 33.1496 50.106 33.1496 48.606C33.1496 48.102 33.6416 47.73 34.6496 47.73C35.2736 47.73 35.9096 47.862 36.4856 48.234L36.9776 47.322C36.4256 46.962 35.4896 46.746 34.6616 46.746C33.0296 46.746 32.0096 47.514 32.0096 48.654C32.0096 51.186 36.0296 49.95 36.0296 51.378C36.0296 51.918 35.5856 52.242 34.5176 52.242C33.6896 52.242 32.8256 51.966 32.2856 51.582L31.8056 52.494C32.3336 52.914 33.3776 53.238 34.4336 53.238ZM42.0173 46.746C41.0453 46.746 40.2533 47.094 39.7733 47.706V44.262H38.6213V53.166H39.7733V49.89C39.7733 48.51 40.5653 47.778 41.7893 47.778C42.8813 47.778 43.5053 48.39 43.5053 49.638V53.166H44.6573V49.506C44.6573 47.634 43.5653 46.746 42.0173 46.746ZM50.1613 46.746C49.2613 46.746 48.4693 47.082 47.9413 47.766V44.262H46.7893V53.166H47.8933V52.158C48.4093 52.878 49.2253 53.238 50.1613 53.238C52.0213 53.238 53.3773 51.93 53.3773 49.986C53.3773 48.042 52.0213 46.746 50.1613 46.746ZM50.0653 52.23C48.8533 52.23 47.9293 51.342 47.9293 49.986C47.9293 48.63 48.8533 47.754 50.0653 47.754C51.2893 47.754 52.2133 48.63 52.2133 49.986C52.2133 51.342 51.2893 52.23 50.0653 52.23ZM57.693 53.238C59.601 53.238 60.993 51.882 60.993 49.986C60.993 48.09 59.601 46.746 57.693 46.746C55.785 46.746 54.381 48.09 54.381 49.986C54.381 51.882 55.785 53.238 57.693 53.238ZM57.693 52.23C56.469 52.23 55.545 51.342 55.545 49.986C55.545 48.63 56.469 47.754 57.693 47.754C58.917 47.754 59.829 48.63 59.829 49.986C59.829 51.342 58.917 52.23 57.693 52.23ZM64.8435 46.746C63.8235 46.746 62.8755 47.034 62.2155 47.562L62.6955 48.426C63.1875 48.006 63.9555 47.742 64.7115 47.742C65.8515 47.742 66.4155 48.306 66.4155 49.278V49.506H64.5915C62.6955 49.506 62.0355 50.346 62.0355 51.366C62.0355 52.47 62.9475 53.238 64.3875 53.238C65.3835 53.238 66.0915 52.902 66.4755 52.326V53.166H67.5675V49.326C67.5675 47.586 66.5835 46.746 64.8435 46.746ZM64.5795 52.35C63.7035 52.35 63.1755 51.954 63.1755 51.318C63.1755 50.778 63.4995 50.334 64.6395 50.334H66.4155V51.222C66.1275 51.954 65.4435 52.35 64.5795 52.35ZM70.8034 47.874V46.806H69.6994V53.166H70.8514V49.998C70.8514 48.606 71.6194 47.85 72.8554 47.85C72.9394 47.85 73.0234 47.85 73.1194 47.862V46.746C72.0034 46.746 71.2114 47.13 70.8034 47.874ZM79.3287 44.262V47.766C78.8007 47.082 78.0087 46.746 77.1087 46.746C75.2487 46.746 73.8927 48.042 73.8927 49.986C73.8927 51.93 75.2487 53.238 77.1087 53.238C78.0447 53.238 78.8607 52.878 79.3767 52.158V53.166H80.4807V44.262H79.3287ZM77.2047 52.23C75.9807 52.23 75.0567 51.342 75.0567 49.986C75.0567 48.63 75.9807 47.754 77.2047 47.754C78.4167 47.754 79.3407 48.63 79.3407 49.986C79.3407 51.342 78.4167 52.23 77.2047 52.23Z" fill="white"/>
</svg>
