<svg width="24" height="25" viewBox="0 0 24 25" fill="none" xmlns="http://www.w3.org/2000/svg">
<path d="M4.04651 20.5772C3.48372 20.5772 3.00177 20.3766 2.60065 19.9755C2.19954 19.5744 1.99932 19.0928 2 18.5307V6.25159C2 5.6888 2.20056 5.20685 2.60168 4.80573C3.00279 4.40461 3.4844 4.2044 4.04651 4.20508H10.186L12.2326 6.25159H20.4186C20.9814 6.25159 21.4633 6.45215 21.8645 6.85327C22.2656 7.25438 22.4658 7.73599 22.4651 8.2981H11.3884L9.34186 6.25159H4.04651V18.5307L6.50233 10.3446H24L21.3651 19.119C21.2287 19.5624 20.977 19.9165 20.61 20.1812C20.2429 20.4459 19.8381 20.5779 19.3953 20.5772H4.04651ZM6.19535 18.5307H19.3953L21.2372 12.3911H8.03721L6.19535 18.5307Z" fill="#B5B5B5"/>
</svg>
