<svg width="68" height="16" viewBox="0 0 68 16" fill="none" xmlns="http://www.w3.org/2000/svg">
<path d="M7.33325 1.3335C10.6453 1.3335 13.3333 4.0215 13.3333 7.3335C13.3333 10.6455 10.6453 13.3335 7.33325 13.3335C4.02125 13.3335 1.33325 10.6455 1.33325 7.3335C1.33325 4.0215 4.02125 1.3335 7.33325 1.3335ZM7.33325 12.0002C9.91125 12.0002 11.9999 9.9115 11.9999 7.3335C11.9999 4.75483 9.91125 2.66683 7.33325 2.66683C4.75459 2.66683 2.66659 4.75483 2.66659 7.3335C2.66659 9.9115 4.75459 12.0002 7.33325 12.0002ZM12.9899 12.0475L14.8759 13.9328L13.9326 14.8762L12.0473 12.9902L12.9899 12.0475Z" fill="#232121"/>
<path opacity="0.5" d="M28.7097 13.096C28.0777 13.096 27.4657 13 26.8737 12.808C26.2897 12.608 25.8297 12.352 25.4937 12.04L25.9377 11.104C26.2577 11.392 26.6657 11.628 27.1617 11.812C27.6657 11.988 28.1817 12.076 28.7097 12.076C29.4057 12.076 29.9257 11.96 30.2697 11.728C30.6137 11.488 30.7857 11.172 30.7857 10.78C30.7857 10.492 30.6897 10.26 30.4977 10.084C30.3137 9.9 30.0817 9.76 29.8017 9.664C29.5297 9.568 29.1417 9.46 28.6377 9.34C28.0057 9.188 27.4937 9.036 27.1017 8.884C26.7177 8.732 26.3857 8.5 26.1057 8.188C25.8337 7.868 25.6977 7.44 25.6977 6.904C25.6977 6.456 25.8137 6.052 26.0457 5.692C26.2857 5.332 26.6457 5.044 27.1257 4.828C27.6057 4.612 28.2017 4.504 28.9137 4.504C29.4097 4.504 29.8977 4.568 30.3777 4.696C30.8577 4.824 31.2697 5.008 31.6137 5.248L31.2177 6.208C30.8657 5.984 30.4897 5.816 30.0897 5.704C29.6897 5.584 29.2977 5.524 28.9137 5.524C28.2337 5.524 27.7217 5.648 27.3777 5.896C27.0417 6.144 26.8737 6.464 26.8737 6.856C26.8737 7.144 26.9697 7.38 27.1617 7.564C27.3537 7.74 27.5897 7.88 27.8697 7.984C28.1577 8.08 28.5457 8.184 29.0337 8.296C29.6657 8.448 30.1737 8.6 30.5577 8.752C30.9417 8.904 31.2697 9.136 31.5417 9.448C31.8217 9.76 31.9617 10.18 31.9617 10.708C31.9617 11.148 31.8417 11.552 31.6017 11.92C31.3617 12.28 30.9977 12.568 30.5097 12.784C30.0217 12.992 29.4217 13.096 28.7097 13.096ZM39.2948 9.856C39.2948 9.944 39.2868 10.06 39.2708 10.204H34.1108C34.1828 10.764 34.4268 11.216 34.8428 11.56C35.2668 11.896 35.7908 12.064 36.4148 12.064C37.1748 12.064 37.7868 11.808 38.2508 11.296L38.8868 12.04C38.5988 12.376 38.2388 12.632 37.8068 12.808C37.3828 12.984 36.9068 13.072 36.3788 13.072C35.7068 13.072 35.1108 12.936 34.5908 12.664C34.0708 12.384 33.6668 11.996 33.3788 11.5C33.0988 11.004 32.9588 10.444 32.9588 9.82C32.9588 9.204 33.0948 8.648 33.3668 8.152C33.6468 7.656 34.0268 7.272 34.5068 7C34.9948 6.72 35.5428 6.58 36.1508 6.58C36.7588 6.58 37.2988 6.72 37.7708 7C38.2508 7.272 38.6228 7.656 38.8868 8.152C39.1588 8.648 39.2948 9.216 39.2948 9.856ZM36.1508 7.552C35.5988 7.552 35.1348 7.72 34.7588 8.056C34.3908 8.392 34.1748 8.832 34.1108 9.376H38.1908C38.1268 8.84 37.9068 8.404 37.5308 8.068C37.1628 7.724 36.7028 7.552 36.1508 7.552ZM43.0347 6.58C43.9147 6.58 44.5867 6.796 45.0507 7.228C45.5227 7.66 45.7587 8.304 45.7587 9.16V13H44.6667V12.16C44.4747 12.456 44.1987 12.684 43.8387 12.844C43.4867 12.996 43.0667 13.072 42.5787 13.072C41.8667 13.072 41.2947 12.9 40.8627 12.556C40.4387 12.212 40.2267 11.76 40.2267 11.2C40.2267 10.64 40.4307 10.192 40.8387 9.856C41.2467 9.512 41.8947 9.34 42.7827 9.34H44.6067V9.112C44.6067 8.616 44.4627 8.236 44.1747 7.972C43.8867 7.708 43.4627 7.576 42.9027 7.576C42.5267 7.576 42.1587 7.64 41.7987 7.768C41.4387 7.888 41.1347 8.052 40.8867 8.26L40.4067 7.396C40.7347 7.132 41.1267 6.932 41.5827 6.796C42.0387 6.652 42.5227 6.58 43.0347 6.58ZM42.7707 12.184C43.2107 12.184 43.5907 12.088 43.9107 11.896C44.2307 11.696 44.4627 11.416 44.6067 11.056V10.168H42.8307C41.8547 10.168 41.3667 10.496 41.3667 11.152C41.3667 11.472 41.4907 11.724 41.7387 11.908C41.9867 12.092 42.3307 12.184 42.7707 12.184ZM48.9946 7.708C49.1946 7.34 49.4906 7.06 49.8826 6.868C50.2746 6.676 50.7506 6.58 51.3106 6.58V7.696C51.2466 7.688 51.1586 7.684 51.0466 7.684C50.4226 7.684 49.9306 7.872 49.5706 8.248C49.2186 8.616 49.0426 9.144 49.0426 9.832V13H47.8906V6.64H48.9946V7.708ZM55.4438 13.072C54.7958 13.072 54.2158 12.932 53.7038 12.652C53.1998 12.372 52.8038 11.988 52.5158 11.5C52.2278 11.004 52.0838 10.444 52.0838 9.82C52.0838 9.196 52.2278 8.64 52.5158 8.152C52.8038 7.656 53.1998 7.272 53.7038 7C54.2158 6.72 54.7958 6.58 55.4438 6.58C56.0198 6.58 56.5318 6.696 56.9798 6.928C57.4358 7.16 57.7878 7.496 58.0358 7.936L57.1598 8.5C56.9598 8.196 56.7118 7.968 56.4158 7.816C56.1198 7.664 55.7918 7.588 55.4318 7.588C55.0158 7.588 54.6398 7.68 54.3038 7.864C53.9758 8.048 53.7158 8.312 53.5238 8.656C53.3398 8.992 53.2478 9.38 53.2478 9.82C53.2478 10.268 53.3398 10.664 53.5238 11.008C53.7158 11.344 53.9758 11.604 54.3038 11.788C54.6398 11.972 55.0158 12.064 55.4318 12.064C55.7918 12.064 56.1198 11.988 56.4158 11.836C56.7118 11.684 56.9598 11.456 57.1598 11.152L58.0358 11.704C57.7878 12.144 57.4358 12.484 56.9798 12.724C56.5318 12.956 56.0198 13.072 55.4438 13.072ZM62.8413 6.58C63.6493 6.58 64.2893 6.816 64.7613 7.288C65.2413 7.752 65.4813 8.436 65.4813 9.34V13H64.3293V9.472C64.3293 8.856 64.1813 8.392 63.8853 8.08C63.5893 7.768 63.1653 7.612 62.6133 7.612C61.9893 7.612 61.4973 7.796 61.1373 8.164C60.7773 8.524 60.5973 9.044 60.5973 9.724V13H59.4453V4.096H60.5973V7.54C60.8373 7.236 61.1493 7 61.5333 6.832C61.9253 6.664 62.3613 6.58 62.8413 6.58Z" fill="#232121"/>
</svg>
