<svg width="22" height="23" viewBox="0 0 22 23" fill="none" xmlns="http://www.w3.org/2000/svg">
<path d="M3.66659 7.66504H1.83325V18.665C1.83325 19.1513 2.02641 19.6176 2.37022 19.9614C2.71404 20.3052 3.18035 20.4984 3.66659 20.4984H14.6666V18.665H3.66659V7.66504Z" fill="#B5B5B5"/>
<path d="M18.3333 2.16504H7.33333C6.8471 2.16504 6.38079 2.35819 6.03697 2.70201C5.69315 3.04583 5.5 3.51214 5.5 3.99837V14.9984C5.5 15.4846 5.69315 15.9509 6.03697 16.2947C6.38079 16.6386 6.8471 16.8317 7.33333 16.8317H18.3333C18.8196 16.8317 19.2859 16.6386 19.6297 16.2947C19.9735 15.9509 20.1667 15.4846 20.1667 14.9984V3.99837C20.1667 3.51214 19.9735 3.04583 19.6297 2.70201C19.2859 2.35819 18.8196 2.16504 18.3333 2.16504ZM10.0833 13.165V5.83171L16.5 9.49837L10.0833 13.165Z" fill="#B5B5B5"/>
</svg>
